# xmcd
#
# Track frame offsets:
#	150
#	6142
#	21570
#	38937
#	59770
#	81447
#	102807
#	122480
#	143817
#	167285
#	188255
#	208257
#	226102
#	232970
#	246880
#	265757
#
# Disc length: 4068 seconds
#
# Revision: 5
# Processed by: cddbd v1.5.1PL0 Copyright (c) Steve Scherf et al.
# Submitted via: EasyCDDAExtractor 8.1.4.1
#
DISCID=ce0fe210
DTITLE=Jill Scott - Beautifully Human
DYEAR=2004
DGENRE=R&B
TTITLE0=Warm Up
TTITLE1=I'm Not Afraid
TTITLE2=Golden
TTITLE3=The Fact Is (I Need You)
TTITLE4=Spring Summer Feeling
TTITLE5=Cross My Mind
TTITLE6=Bedda At Home
TTITLE7=Talk To Me
TTITLE8=Family Reunion
TTITLE9=Can't Explain (42nd Street Happenstance)
TTITLE10=Whatever
TTITLE11=Not Like Crazy
TTITLE12=Nothing (Interlude)
TTITLE13=Rasool
TTITLE14=My Petition
TTITLE15=I Keep
EXTD=Updated and submitted by Slice!! in Detroit YEAR: 2004
EXTT0=
EXTT1=
EXTT2=
EXTT3=
EXTT4=
EXTT5=
EXTT6=
EXTT7=
EXTT8=
EXTT9=
EXTT10=
EXTT11=
EXTT12=
EXTT13=
EXTT14=
EXTT15=
PLAYORDER=
